PathFileType	4	(X/Y/Z)	D:\TRACE\v60_Jaco2_6-2-23\JustArmDRS_Motion1_2-platform.trc
DataRate	CameraRate	NumFrames	NumMarkers	Units	OrigDataRate	OrigDataStartFrame	OrigNumFrames
100.00	100.00	      61	5	mm	100.00	5958	      6808
Frame#	Time	Left_Front			Right_Front			Left_Aft			Right_Aft			Post			
		X1	Y1	Z1	X2	Y2	Z2	X3	Y3	Z3	X4	Y4	Z4	X5	Y5	Z5	

5958	59.570	-750.46985	-10.89408	-643.39722	819.46979	-9.02080	-649.22827	-658.62549	20.67351	491.02026	784.19019	21.05882	500.89648	35.39787	1279.25098	-1004.37360	
5959	59.580	-750.37109	-10.60529	-643.42578	819.50171	-8.75128	-649.09973	-658.63177	20.55331	491.05743	783.73035	20.85542	500.92065	35.55667	1279.64172	-1003.52698	
5960	59.590	-750.35864	-10.16639	-643.36597	819.50598	-8.29379	-648.93365	-658.64752	20.44207	491.15897	783.46136	20.56330	500.52744	35.33351	1279.92188	-1002.66077	
5961	59.600	-750.52875	-9.83162	-643.19489	819.43384	-7.89687	-648.82916	-658.72491	20.29027	491.20688	783.58752	20.49246	501.04050	35.38625	1280.32764	-1001.81793	
5962	59.610	-750.79675	-9.62572	-643.19745	819.14301	-7.60617	-648.80890	-658.91034	20.12008	491.30994	783.42499	20.21479	501.14526	35.09613	1280.90894	-1001.10883	
5963	59.620	-751.18286	-9.17291	-643.22614	819.10101	-7.40451	-648.53357	-659.32690	19.91259	491.31476	782.86670	19.98587	501.38898	34.42593	1281.55249	-1000.27502	
5964	59.630	-751.47461	-8.86680	-643.31342	818.69226	-7.11167	-648.55768	-659.54272	19.69125	491.39526	782.61926	19.70462	501.44504	34.46014	1282.04358	-999.73761	
5965	59.640	-751.64209	-8.64849	-643.19531	818.34296	-6.82270	-648.65839	-659.72729	19.51844	491.41974	782.49585	19.56011	501.52817	34.30592	1282.32751	-999.12231	
5966	59.650	-751.82257	-8.43020	-643.13867	818.07233	-6.47720	-648.65027	-659.95996	19.16038	491.53583	782.38159	19.48967	501.60916	34.20813	1282.52698	-998.43707	
5967	59.660	-752.09021	-8.12948	-643.06683	817.69873	-6.25197	-648.58112	-660.22040	18.84810	491.63965	782.12756	19.34461	501.68756	34.10106	1282.95801	-998.04224	
5968	59.670	-752.33795	-7.91445	-643.03436	817.51801	-6.01108	-648.53448	-660.37750	18.61983	491.77136	781.93866	19.07254	501.68008	34.08635	1283.29358	-997.73804	
5969	59.680	-752.49658	-7.78631	-643.01886	817.36578	-5.79276	-648.53064	-660.48303	18.45244	491.80756	781.64948	18.89033	501.80429	33.46427	1283.90332	-997.08978	
5970	59.690	-752.85443	-7.51341	-642.88409	817.13434	-5.48376	-648.53204	-660.73718	18.23449	491.91241	781.24677	18.70624	501.80151	32.83642	1284.40918	-996.64679	
5971	59.700	-753.34528	-7.32025	-642.72400	816.75720	-5.28192	-648.55603	-661.07892	17.99849	491.95572	780.93115	18.45304	501.74313	32.59167	1284.78259	-996.31189	
5972	59.710	-753.87219	-7.02329	-642.42786	816.31903	-4.89779	-648.22089	-661.53937	17.83978	492.07657	780.37598	18.32375	501.98022	32.26173	1285.19031	-996.03436	
5973	59.720	-754.18640	-6.73124	-642.42609	815.94666	-4.64551	-648.11609	-662.13452	17.64689	492.12598	780.13501	18.05011	501.95892	31.82890	1285.71851	-994.97614	
5974	59.730	-754.61261	-6.33566	-642.41632	815.40857	-4.26350	-647.95892	-662.56573	17.48885	492.23297	779.58240	17.83618	502.19461	31.71396	1286.15344	-994.38165	
5975	59.740	-754.99579	-5.82688	-642.41296	814.85095	-3.94880	-647.98468	-662.89935	17.30320	492.29648	779.33240	17.61216	502.18420	31.16325	1286.65381	-993.57416	
5976	59.750	-755.26300	-5.40263	-642.58368	814.56689	-3.73836	-647.99579	-663.28949	17.16358	492.37839	778.84863	17.31520	502.23535	30.62139	1287.16455	-992.89240	
5977	59.760	-755.56439	-5.11684	-642.52490	814.19891	-3.34571	-647.79431	-663.68671	16.93135	492.46024	778.66003	17.15388	502.20505	30.26240	1287.52832	-991.76978	
5978	59.770	-756.08746	-4.86471	-642.18945	813.85779	-3.08334	-647.76440	-664.04871	16.76490	492.56015	777.96252	16.89808	502.41678	29.96437	1287.94360	-990.90753	
5979	59.780	-756.72412	-4.51292	-642.11182	813.43372	-2.66776	-647.69043	-664.53131	16.49372	492.64340	777.50250	16.57792	502.52328	29.67186	1288.39294	-990.01318	
5980	59.790	-757.18054	-4.15616	-641.98273	812.99957	-2.43473	-647.65808	-665.17706	16.28700	492.75876	777.09283	16.36122	502.61182	29.28052	1288.99268	-989.22266	
5981	59.800	-757.53632	-3.94756	-641.93890	812.39667	-2.09769	-647.63934	-665.60229	16.02057	492.74942	776.93164	16.20246	502.74796	28.79657	1289.49744	-988.83014	
5982	59.810	-758.11786	-3.68702	-641.97388	811.88586	-1.81266	-647.51318	-666.01990	15.85769	492.84134	776.18427	16.02236	502.78922	27.85877	1289.97217	-988.18073	
5983	59.820	-758.65723	-3.34396	-641.92242	811.36542	-1.56497	-647.39771	-666.37213	15.62171	492.96890	775.28070	15.74527	502.63657	27.33471	1290.52734	-987.86865	
5984	59.830	-759.04865	-3.10141	-641.76611	810.82684	-1.33058	-647.28284	-666.96887	15.35262	493.05844	775.05823	15.54949	503.03336	27.12356	1291.06946	-987.31152	
5985	59.840	-759.56580	-2.75756	-641.64655	810.35675	-0.95319	-647.21814	-667.49658	15.22823	493.06943	774.55060	15.20203	503.05890	26.61293	1291.32300	-986.64813	
5986	59.850	-760.22693	-2.45360	-641.55200	809.85468	-0.65672	-647.17847	-668.10828	14.95839	493.20969	774.12421	15.00690	503.01422	26.48364	1291.70825	-986.14880	
5987	59.860	-760.80951	-2.15631	-641.47266	809.46204	-0.33881	-647.15649	-668.44812	14.66379	493.30493	773.53430	14.76689	503.02328	25.44942	1292.50098	-985.47864	
5988	59.870	-761.23059	-1.86166	-641.54651	808.74890	0.04277	-647.16589	-668.96057	14.34963	493.26505	772.69757	14.56124	503.26263	24.74686	1293.04395	-984.86945	
5989	59.880	-761.74762	-1.24111	-641.61359	807.92596	0.41195	-647.03613	-669.62787	14.10734	493.33258	772.28986	14.33988	503.38321	24.20981	1293.57800	-984.04419	
5990	59.890	-762.37994	-0.84573	-641.42120	807.46454	0.89186	-646.73975	-670.16327	13.84992	493.44620	771.63220	14.13272	503.42386	23.67826	1293.98157	-983.04272	
5991	59.900	-763.25153	-0.35999	-641.34705	807.02356	1.26220	-646.67383	-670.75305	13.55674	493.61523	771.16351	13.89880	503.45038	23.06569	1294.42419	-981.95288	
5992	59.910	-763.66797	-0.18925	-641.22375	806.39740	1.57661	-646.71869	-671.32434	13.22184	493.72281	770.61731	13.54471	503.43900	22.50328	1295.10498	-981.10089	
5993	59.920	-764.29114	0.08036	-641.17950	805.71265	1.90719	-646.59229	-672.04077	13.06519	493.86432	770.06708	13.28467	503.56161	21.88566	1295.66675	-979.88721	
5994	59.930	-764.82367	0.54349	-641.00360	805.09332	2.32899	-646.48065	-672.64001	12.82891	493.93597	769.38635	13.08712	503.81314	21.58176	1295.95044	-979.24542	
5995	59.940	-765.47296	0.83452	-640.94977	804.51074	2.69038	-646.26135	-673.26434	12.62084	493.98700	768.59229	12.76933	503.87204	20.54281	1296.53748	-978.39758	
5996	59.950	-766.29565	1.17635	-640.76910	803.94098	2.80721	-646.25824	-673.77246	12.24040	494.00027	768.03204	12.52802	503.79172	19.98478	1296.99524	-978.13910	
5997	59.960	-766.93555	1.55509	-640.70911	803.08832	3.24504	-646.17621	-674.37286	11.97088	494.17010	767.38110	12.29486	503.90680	19.27072	1297.67371	-977.46851	
5998	59.970	-767.47784	1.83116	-640.67969	802.40405	3.63901	-645.96600	-675.25305	11.69707	494.34558	766.46368	12.06657	504.01352	18.76567	1298.18604	-977.01685	
5999	59.980	-768.10400	2.26393	-640.63873	801.55908	3.85745	-646.05438	-676.43976	11.94501	494.33337	765.73602	11.79634	504.17508	18.19800	1298.77368	-976.52808	
6000	59.990	-768.96051	2.75090	-640.53595	801.02173	4.16076	-646.02246	-676.68774	11.21815	494.54184	765.24475	11.48483	504.21527	17.05148	1299.44067	-975.34772	
6001	60.000	-769.82129	3.21729	-640.49298	800.30707	4.67671	-645.82904	-677.13977	11.03784	494.65509	764.40546	11.35413	504.40558	16.68768	1299.90125	-974.72833	
6002	60.010	-770.37213	3.60478	-640.38019	799.60657	5.05793	-645.68750	-677.99622	10.71413	494.78693	763.56879	11.15126	504.46423	16.14551	1300.17737	-973.89856	
6003	60.020	-770.97607	4.05372	-640.36646	798.77679	5.47142	-645.73114	-678.62817	10.41156	494.80154	762.94189	10.67948	504.42599	15.32974	1300.83386	-972.88086	
6004	60.030	-771.92920	4.33608	-640.25470	798.12982	5.69096	-645.69196	-679.28259	10.13136	495.04120	762.43146	10.46845	504.55701	14.35006	1301.46594	-971.98358	
6005	60.040	-772.89825	4.67843	-639.97638	797.32434	6.03374	-645.43695	-680.93762	10.54640	495.04327	761.20996	10.08410	504.81494	13.51060	1302.10632	-970.90070	
6006	60.050	-773.27557	4.84474	-639.67023	796.36853	6.42194	-645.51495	-681.66620	10.35281	495.12616	760.72156	9.79890	504.82660	12.82709	1302.54492	-970.10681	
6007	60.060	-774.25305	5.16023	-639.72510	795.72833	6.72298	-645.47400	-682.32898	10.29810	495.11118	760.03357	9.53712	504.89377	11.89856	1303.10608	-969.00385	
6008	60.070	-774.94409	5.52473	-639.57397	794.98352	7.10115	-645.17407	-683.16644	9.92984	495.26144	759.29041	9.31472	504.96841	11.12349	1303.84131	-968.45343	
6009	60.080	-776.12054	5.92777	-639.44214	794.10980	7.52569	-645.13770	-684.00714	9.74669	495.29608	758.28595	9.15155	505.22430	10.55802	1304.42358	-967.72601	
6010	60.090	-776.74597	6.35947	-639.52063	793.43744	7.77631	-645.12854	-684.77728	9.48296	495.37238	757.61194	8.76435	505.31595	9.48742	1304.81897	-967.02173	
6011	60.100	-777.30200	6.67215	-639.49615	792.50793	8.31672	-645.07776	-685.84369	9.16202	495.52020	756.90729	8.51316	505.31293	8.56435	1305.37549	-966.44147	
6012	60.110	-778.22540	7.21088	-639.38196	791.46014	8.74894	-644.84454	-686.54376	8.93454	495.62668	755.86353	8.18724	505.53342	8.18670	1305.91309	-965.55804	
6013	60.120	-779.17102	7.90261	-639.30402	790.93420	9.04619	-644.72076	-687.24799	8.66287	495.78360	755.21716	8.01658	505.56421	7.38260	1306.50500	-964.73108	
6014	60.130	-780.03925	8.11752	-639.37079	790.06067	9.46648	-644.79932	-688.63153	8.84654	495.94409	754.37476	7.61721	505.49744	6.22081	1307.13525	-963.93744	
6015	60.140	-780.66919	8.46706	-639.23486	789.10730	9.94587	-644.50891	-689.58954	8.65703	496.06281	753.36462	7.46421	505.79865	5.46295	1307.91223	-963.19897	
6016	60.150	-781.70166	8.85938	-638.93317	788.38391	10.21591	-644.32593	-690.48810	8.38559	496.12079	752.37323	7.02551	506.05377	4.91590	1308.32312	-961.80316	
6017	60.160	-782.54749	9.27951	-638.83813	787.30402	10.65812	-644.29724	-691.32599	8.14268	496.20868	751.67310	6.85472	506.05701	3.54610	1308.89648	-960.93134	
6018	60.170	-783.41302	9.69376	-638.92163	786.65698	11.03965	-644.03052	-692.36377	7.87393	496.28238	750.86401	6.56319	506.04160	2.86846	1309.37756	-960.20056	
